<?xml version="1.0" encoding="utf-8"?>
<!-- Generator: Adobe Illustrator 15.1.0, SVG Export Plug-In . SVG Version: 6.00 Build 0)  -->
<!DOCTYPE svg PUBLIC "-//W3C//DTD SVG 1.0//EN" "http://www.w3.org/TR/2001/REC-SVG-20010904/DTD/svg10.dtd">
<svg version="1.0" xmlns="http://www.w3.org/2000/svg" xmlns:xlink="http://www.w3.org/1999/xlink" x="0px" y="0px" width="580px"
	 height="480px" viewBox="0 0 580 480" enable-background="new 0 0 580 480" xml:space="preserve">
<g id="Outline">
	<polygon fill="#FFFFFF" stroke="#FFFFFF" stroke-width="7" stroke-linejoin="round" stroke-miterlimit="10" points="8.916,45.353
		10.984,358.629 254.234,465.879 329.309,433.592 366.463,448.67 571.084,357.129 571.084,263.434 496.234,231.126 442.484,252.879
		442.984,100.879 366.463,69.045 291.984,100.629 254.461,84.661 177.234,117.629 177.987,269.891 161.198,262.33 160.766,45.891
		84.841,14.121 	"/>
</g>
<g id="U">
	<polygon fill="#F1B822" points="83.791,18.707 17.57,45.875 83.791,73.042 150.579,45.875 	"/>
	<polyline fill="#F1B822" points="12.477,52.101 78.697,80.966 80.56,297.742 182.274,343.021 182.274,122.85 249.628,153.414
		249.628,459.051 15.306,356.039 	"/>
	<polygon fill="#F1B822" points="254.156,88.324 187.368,117.19 254.156,146.056 322.074,117.19 	"/>
	<polyline fill="#DC891A" points="327.17,123.982 258.684,153.414 258.684,461.59 327.17,429.619 	"/>
	<polyline fill="#F1B822" points="159.635,266.047 93.979,294.346 174.351,329.438 174.351,272.838 	"/>
	<polygon fill="#DC891A" points="155.596,52.101 87.936,80.507 87.936,289.807 157.596,260.477 	"/>
</g>
<g id="L">
	<polygon fill="#ACACAC" points="366.4,73.042 300.359,99.059 366.4,129.159 434.238,101.101 	"/>
	<polygon fill="#ACACAC" points="333.156,123.982 362.807,135.898 362.807,443.189 333.156,430.162 	"/>
	<polygon fill="#ACACAC" points="495.338,234.629 562.277,262.588 445.92,313.355 445.92,255.576 	"/>
	<polygon fill="#818080" points="437.832,327.281 439.758,108.101 371.342,135.898 371.342,443.189 567.219,356.033
		567.219,269.328 	"/>
</g>
</svg>
